<?xml version="1.0" encoding="utf-8"?>
<!-- Svg Vector Icons : http://www.onlinewebfonts.com/icon -->
<!DOCTYPE svg PUBLIC "-//W3C//DTD SVG 1.1//EN" "http://www.w3.org/Graphics/SVG/1.1/DTD/svg11.dtd">
<svg version="1.1" xmlns="http://www.w3.org/2000/svg" xmlns:xlink="http://www.w3.org/1999/xlink" x="0px" y="0px" viewBox="0 0 256 256" enable-background="new 0 0 256 256" xml:space="preserve">
<metadata> Svg Vector Icons : http://www.onlinewebfonts.com/icon </metadata>
<g><g><g><g><path fill="#000000" d="M225.7,107.7h-48.9l34.6-34.6c7.9-7.9,7.9-20.7,0-28.6c-7.9-7.9-20.7-7.9-28.6,0l-34.6,34.6V30.3c0-11.2-9.1-20.3-20.3-20.3c-11.2,0-20.3,9.1-20.3,20.3v48.9L73.2,44.6c-7.9-7.9-20.7-7.9-28.6,0c-7.9,7.9-7.9,20.7,0,28.6l34.6,34.6H30.3c-11.2,0-20.3,9.1-20.3,20.3s9.1,20.3,20.3,20.3h48.9l-34.6,34.6c-7.9,7.9-7.9,20.7,0,28.6c7.9,7.9,20.7,7.9,28.6,0l34.6-34.6v48.9c0,11.2,9.1,20.3,20.3,20.3c11.2,0,20.3-9.1,20.3-20.3v-48.9l34.6,34.6c7.9,7.9,20.7,7.9,28.6,0s7.9-20.7,0-28.6l-34.6-34.6h48.9c11.2,0,20.3-9.1,20.3-20.3C246,116.8,236.9,107.7,225.7,107.7z"/></g></g><g></g><g></g><g></g><g></g><g></g><g></g><g></g><g></g><g></g><g></g><g></g><g></g><g></g><g></g><g></g></g></g>
</svg>